<svg width="17" height="16" viewBox="0 0 17 16" fill="none" xmlns="http://www.w3.org/2000/svg">
<g clip-path="url(#clip0_957_1418)">
<path d="M11.8335 1.99996H14.5002C14.677 1.99996 14.8465 2.0702 14.9716 2.19522C15.0966 2.32025 15.1668 2.48981 15.1668 2.66663V13.3333C15.1668 13.5101 15.0966 13.6797 14.9716 13.8047C14.8465 13.9297 14.677 14 14.5002 14H2.50016C2.32335 14 2.15378 13.9297 2.02876 13.8047C1.90373 13.6797 1.8335 13.5101 1.8335 13.3333V2.66663C1.8335 2.48981 1.90373 2.32025 2.02876 2.19522C2.15378 2.0702 2.32335 1.99996 2.50016 1.99996H5.16683V0.666626H6.50016V1.99996H10.5002V0.666626H11.8335V1.99996ZM10.5002 3.33329H6.50016V4.66663H5.16683V3.33329H3.16683V5.99996H13.8335V3.33329H11.8335V4.66663H10.5002V3.33329ZM13.8335 7.33329H3.16683V12.6666H13.8335V7.33329Z" fill="#313131"/>
</g>
<defs>
<clipPath id="clip0_957_1418">
<rect width="16" height="16" fill="white" transform="translate(0.5)"/>
</clipPath>
</defs>
</svg>
