<svg width="22" height="21" viewBox="0 0 22 21" fill="none" xmlns="http://www.w3.org/2000/svg">
<path fill-rule="evenodd" clip-rule="evenodd" d="M9.41629 4.05469V2.17969H20.4286V18H14.9408V16.3203H18.8449V3.82031H11V5.14844L9.41629 4.05469ZM1.57143 8.82031L7.46428 4.67969L13.3571 8.82031V18H8.09284V13H6.91427V18H1.57143V8.82031ZM12.5837 6.28125V5.5H14.1306V7.17969H13.8359L12.5837 6.28125ZM15.7143 7.17969V5.5H17.298V7.17969H15.7143ZM11.7734 9.67969L7.46428 6.75L3.15513 9.67969V16.3203H5.51227V11.3203H9.41629V16.3203H11.7734V9.67969ZM15.7143 10.5V8.82031H17.298V10.5H15.7143ZM17.298 13.8203H15.7143V12.1797H17.298V13.8203Z" fill="#3386FF"/>
</svg>
