<svg width="23" height="21" viewBox="0 0 23 21" fill="none" xmlns="http://www.w3.org/2000/svg">
<path d="M15.1766 13.375L17.5128 14.7812L16.9 15.7969L13.9511 14V9.82031H15.1766V13.375ZM20.5 13.1406C20.5 14.2083 20.2447 15.1914 19.734 16.0898C19.2234 16.9883 18.5277 17.6979 17.6468 18.2188C16.766 18.7396 15.8021 19 14.7553 19C13.8106 19 12.9298 18.7721 12.1128 18.3164C11.2957 17.8607 10.6191 17.2552 10.083 16.5H4.95106V9.82031H2.5L10.6957 2.32031L16.4021 7.55469C17.6021 7.91927 18.5851 8.61589 19.3511 9.64453C20.117 10.6732 20.5 11.8385 20.5 13.1406ZM9.27872 14.8203C9.12553 14.2474 9.04894 13.6875 9.04894 13.1406C9.04894 11.7083 9.50213 10.4583 10.4085 9.39062C11.3149 8.32292 12.4447 7.65885 13.7979 7.39844L10.6957 4.54688L6.59787 8.29688V14.8203H9.27872ZM18.8532 13.1406C18.8532 12.3854 18.6681 11.6888 18.2979 11.0508C17.9277 10.4128 17.4298 9.91146 16.8043 9.54688C16.1787 9.18229 15.4957 9 14.7553 9C14.0149 9 13.3319 9.18229 12.7064 9.54688C12.0809 9.91146 11.5894 10.4128 11.2319 11.0508C10.8745 11.6888 10.6957 12.3854 10.6957 13.1406C10.6957 13.8958 10.8745 14.5924 11.2319 15.2305C11.5894 15.8685 12.0809 16.3763 12.7064 16.7539C13.3319 17.1315 14.0149 17.3203 14.7553 17.3203C15.4957 17.3203 16.1787 17.1315 16.8043 16.7539C17.4298 16.3763 17.9277 15.8685 18.2979 15.2305C18.6681 14.5924 18.8532 13.8958 18.8532 13.1406Z" fill="#3386FF"/>
</svg>
