<svg width="23" height="21" viewBox="0 0 23 21" fill="none" xmlns="http://www.w3.org/2000/svg">
<path d="M11.75 4.67969C10.9888 4.67969 10.3382 4.95964 9.79797 5.51953C9.25779 6.07943 8.98771 6.76302 8.98771 7.57031C8.98771 8.3776 9.25779 9.06771 9.79797 9.64062C10.3382 10.2135 10.9888 10.5 11.75 10.5C12.5111 10.5 13.1618 10.2135 13.702 9.64062C14.2422 9.06771 14.5123 8.3776 14.5123 7.57031C14.5123 6.76302 14.2422 6.07943 13.702 5.51953C13.1618 4.95964 12.5111 4.67969 11.75 4.67969ZM11.75 6.32031C12.0692 6.32031 12.3454 6.44401 12.5787 6.69141C12.8119 6.9388 12.9286 7.23828 12.9286 7.58984C12.9286 7.94141 12.8119 8.23438 12.5787 8.46875C12.3454 8.70312 12.0692 8.82031 11.75 8.82031C11.4308 8.82031 11.1546 8.70312 10.9213 8.46875C10.688 8.23438 10.5714 7.94141 10.5714 7.58984C10.5714 7.23828 10.688 6.9388 10.9213 6.69141C11.1546 6.44401 11.4308 6.32031 11.75 6.32031ZM6.63056 7.17969C6.09038 7.17969 5.63 7.38151 5.24942 7.78516C4.86884 8.1888 4.67855 8.67708 4.67855 9.25C4.67855 9.64062 4.77063 9.99219 4.95478 10.3047C5.13893 10.6172 5.38447 10.8646 5.69139 11.0469C5.99831 11.2292 6.3175 11.3203 6.64898 11.3203C6.98045 11.3203 7.29351 11.2357 7.58815 11.0664C7.88279 10.8971 8.12833 10.6562 8.32476 10.3438C7.73547 9.53646 7.44083 8.61198 7.44083 7.57031V7.33594C7.19529 7.23177 6.92521 7.17969 6.63056 7.17969ZM16.8694 7.17969C16.5748 7.17969 16.3047 7.23177 16.0591 7.33594V7.57031C16.0591 8.61198 15.7645 9.53646 15.1752 10.3438C15.2734 10.474 15.39 10.6107 15.5251 10.7539C15.6601 10.8971 15.789 11.0078 15.9118 11.0859C16.2065 11.2422 16.5195 11.3203 16.851 11.3203C17.1825 11.3203 17.5017 11.2292 17.8086 11.0469C18.1155 10.8646 18.361 10.6172 18.5452 10.3047C18.7293 9.99219 18.8214 9.64062 18.8214 9.25C18.8214 8.67708 18.6311 8.1888 18.2505 7.78516C17.87 7.38151 17.4096 7.17969 16.8694 7.17969ZM11.75 12.1797C11.0625 12.1797 10.3136 12.2839 9.50333 12.4922C8.59485 12.7266 7.84596 13.0521 7.25668 13.4688C6.59373 13.9375 6.26226 14.4714 6.26226 15.0703V16.3203H17.2377V15.0703C17.2377 14.4714 16.9062 13.9375 16.2433 13.4688C15.654 13.0521 14.9051 12.7266 13.9966 12.4922C13.1864 12.2839 12.4375 12.1797 11.75 12.1797ZM6.00445 12.6094C5.09596 12.7396 4.29797 13 3.61047 13.3906C2.7511 13.8594 2.32141 14.4193 2.32141 15.0703V16.3203H4.67855V14.7188C4.67855 13.9375 5.12052 13.2344 6.00445 12.6094ZM17.4955 12.6094C18.3794 13.2344 18.8214 13.9375 18.8214 14.7188V16.3203H21.1786V15.0703C21.1786 14.4193 20.7489 13.8594 19.8895 13.3906C19.202 13 18.404 12.7396 17.4955 12.6094ZM11.75 13.8203C12.3147 13.8203 12.9163 13.9115 13.5547 14.0938C14.144 14.25 14.6473 14.4453 15.0647 14.6797H8.43525C8.85266 14.4453 9.35601 14.25 9.94529 14.0938C10.5837 13.9115 11.1852 13.8203 11.75 13.8203Z" fill="#3386FF"/>
</svg>
