<svg width="20" height="21" viewBox="0 0 20 21" fill="none" xmlns="http://www.w3.org/2000/svg">
<g clip-path="url(#clip0_853_1753)">
<path d="M14.1666 5.49984H18.3333V7.1665H16.6666V17.9998C16.6666 18.2209 16.5788 18.4328 16.4225 18.5891C16.2663 18.7454 16.0543 18.8332 15.8333 18.8332H4.16663C3.94561 18.8332 3.73365 18.7454 3.57737 18.5891C3.42109 18.4328 3.33329 18.2209 3.33329 17.9998V7.1665H1.66663V5.49984H5.83329V2.99984C5.83329 2.77882 5.92109 2.56686 6.07737 2.41058C6.23365 2.2543 6.44561 2.1665 6.66663 2.1665H13.3333C13.5543 2.1665 13.7663 2.2543 13.9225 2.41058C14.0788 2.56686 14.1666 2.77882 14.1666 2.99984V5.49984ZM15 7.1665H4.99996V17.1665H15V7.1665ZM7.49996 9.6665H9.16663V14.6665H7.49996V9.6665ZM10.8333 9.6665H12.5V14.6665H10.8333V9.6665ZM7.49996 3.83317V5.49984H12.5V3.83317H7.49996Z" fill="#313131"/>
</g>
<defs>
<clipPath id="clip0_853_1753">
<rect width="20" height="20" fill="white" transform="translate(0 0.5)"/>
</clipPath>
</defs>
</svg>
