<svg width="29" height="28" viewBox="0 0 29 28" fill="none" xmlns="http://www.w3.org/2000/svg">
<rect x="1.25" y="1" width="26" height="26" rx="13" fill="#3386FF"/>
<rect x="1.25" y="1" width="26" height="26" rx="13" stroke="white" stroke-width="2"/>
<g clip-path="url(#clip0_552_11510)">
<path d="M17.5833 10.0002H20.9166V11.3335H19.5833V20.0002C19.5833 20.177 19.513 20.3465 19.388 20.4716C19.263 20.5966 19.0934 20.6668 18.9166 20.6668H9.58325C9.40644 20.6668 9.23687 20.5966 9.11185 20.4716C8.98682 20.3465 8.91659 20.177 8.91659 20.0002V11.3335H7.58325V10.0002H10.9166V8.00016C10.9166 7.82335 10.9868 7.65378 11.1118 7.52876C11.2369 7.40373 11.4064 7.3335 11.5833 7.3335H16.9166C17.0934 7.3335 17.263 7.40373 17.388 7.52876C17.513 7.65378 17.5833 7.82335 17.5833 8.00016V10.0002ZM12.2499 13.3335V17.3335H13.5833V13.3335H12.2499ZM14.9166 13.3335V17.3335H16.2499V13.3335H14.9166ZM12.2499 8.66683V10.0002H16.2499V8.66683H12.2499Z" fill="white"/>
</g>
<defs>
<clipPath id="clip0_552_11510">
<rect width="16" height="16" fill="white" transform="translate(6.25 6)"/>
</clipPath>
</defs>
</svg>
