<svg width="100" height="100" viewBox="0 0 100 100" fill="none" xmlns="http://www.w3.org/2000/svg">
<path d="M53.6084 12.5001L93.3001 81.2501C93.6658 81.8836 93.8583 82.6021 93.8583 83.3335C93.8583 84.0648 93.6658 84.7834 93.3001 85.4168C92.9344 86.0502 92.4084 86.5762 91.775 86.9419C91.1416 87.3076 90.4231 87.5001 89.6917 87.5001H10.3084C9.57701 87.5001 8.85851 87.3076 8.22511 86.9419C7.59171 86.5762 7.06574 86.0502 6.70005 85.4168C6.33436 84.7834 6.14184 84.0648 6.14185 83.3335C6.14185 82.6021 6.33438 81.8836 6.70007 81.2501L46.3917 12.5001C46.7575 11.8668 47.2834 11.3408 47.9168 10.9752C48.5502 10.6095 49.2687 10.417 50.0001 10.417C50.7314 10.417 51.4499 10.6095 52.0833 10.9752C52.7167 11.3408 53.2427 11.8668 53.6084 12.5001ZM45.8334 66.6668V75.0001H54.1667V66.6668H45.8334ZM45.8334 37.5001V58.3335H54.1667V37.5001H45.8334Z" fill="#FFB300"/>
</svg>
