<svg width="20" height="21" viewBox="0 0 20 21" fill="none" xmlns="http://www.w3.org/2000/svg">
<path d="M10 9.66667C11.1051 9.66667 12.1649 10.1057 12.9463 10.8871C13.7277 11.6685 14.1667 12.7283 14.1667 13.8333V18.8333H12.5V13.8333C12.5 13.1957 12.2564 12.5821 11.8189 12.1181C11.3815 11.6542 10.7832 11.3749 10.1467 11.3375L10 11.3333C9.36232 11.3333 8.74874 11.5769 8.28478 12.0144C7.82083 12.4519 7.54158 13.0501 7.50417 13.6867L7.5 13.8333V18.8333H5.83333V13.8333C5.83333 12.7283 6.27232 11.6685 7.05372 10.8871C7.83512 10.1057 8.89493 9.66667 10 9.66667ZM4.58333 12.1667C4.81583 12.1667 5.04167 12.1942 5.25833 12.245C5.11585 12.6692 5.03147 13.1107 5.0075 13.5575L5 13.8333V13.905C4.90421 13.8707 4.80458 13.8483 4.70333 13.8383L4.58333 13.8333C4.2726 13.8334 3.97301 13.9491 3.74298 14.158C3.51296 14.3669 3.369 14.654 3.33917 14.9633L3.33333 15.0833V18.8333H1.66667V15.0833C1.66667 14.3098 1.97396 13.5679 2.52094 13.0209C3.06792 12.474 3.80978 12.1667 4.58333 12.1667ZM15.4167 12.1667C16.1902 12.1667 16.9321 12.474 17.4791 13.0209C18.026 13.5679 18.3333 14.3098 18.3333 15.0833V18.8333H16.6667V15.0833C16.6667 14.7726 16.5509 14.473 16.342 14.243C16.1331 14.013 15.846 13.869 15.5367 13.8392L15.4167 13.8333C15.2708 13.8333 15.1308 13.8583 15 13.9042V13.8333C15 13.2783 14.91 12.745 14.7425 12.2467C14.9583 12.1942 15.1842 12.1667 15.4167 12.1667ZM4.58333 7.16667C5.13587 7.16667 5.66577 7.38617 6.05647 7.77687C6.44717 8.16757 6.66667 8.69747 6.66667 9.25001C6.66667 9.80254 6.44717 10.3324 6.05647 10.7231C5.66577 11.1138 5.13587 11.3333 4.58333 11.3333C4.0308 11.3333 3.50089 11.1138 3.11019 10.7231C2.71949 10.3324 2.5 9.80254 2.5 9.25001C2.5 8.69747 2.71949 8.16757 3.11019 7.77687C3.50089 7.38617 4.0308 7.16667 4.58333 7.16667ZM15.4167 7.16667C15.9692 7.16667 16.4991 7.38617 16.8898 7.77687C17.2805 8.16757 17.5 8.69747 17.5 9.25001C17.5 9.80254 17.2805 10.3324 16.8898 10.7231C16.4991 11.1138 15.9692 11.3333 15.4167 11.3333C14.8641 11.3333 14.3342 11.1138 13.9435 10.7231C13.5528 10.3324 13.3333 9.80254 13.3333 9.25001C13.3333 8.69747 13.5528 8.16757 13.9435 7.77687C14.3342 7.38617 14.8641 7.16667 15.4167 7.16667ZM4.58333 8.83334C4.47283 8.83334 4.36685 8.87724 4.28871 8.95538C4.21056 9.03352 4.16667 9.1395 4.16667 9.25001C4.16667 9.36051 4.21056 9.46649 4.28871 9.54463C4.36685 9.62277 4.47283 9.66667 4.58333 9.66667C4.69384 9.66667 4.79982 9.62277 4.87796 9.54463C4.9561 9.46649 5 9.36051 5 9.25001C5 9.1395 4.9561 9.03352 4.87796 8.95538C4.79982 8.87724 4.69384 8.83334 4.58333 8.83334ZM15.4167 8.83334C15.3062 8.83334 15.2002 8.87724 15.122 8.95538C15.0439 9.03352 15 9.1395 15 9.25001C15 9.36051 15.0439 9.46649 15.122 9.54463C15.2002 9.62277 15.3062 9.66667 15.4167 9.66667C15.5272 9.66667 15.6332 9.62277 15.7113 9.54463C15.7894 9.46649 15.8333 9.36051 15.8333 9.25001C15.8333 9.1395 15.7894 9.03352 15.7113 8.95538C15.6332 8.87724 15.5272 8.83334 15.4167 8.83334ZM10 2.16667C10.8841 2.16667 11.7319 2.51786 12.357 3.14298C12.9821 3.7681 13.3333 4.61595 13.3333 5.50001C13.3333 6.38406 12.9821 7.23191 12.357 7.85703C11.7319 8.48215 10.8841 8.83334 10 8.83334C9.11594 8.83334 8.2681 8.48215 7.64298 7.85703C7.01786 7.23191 6.66667 6.38406 6.66667 5.50001C6.66667 4.61595 7.01786 3.7681 7.64298 3.14298C8.2681 2.51786 9.11594 2.16667 10 2.16667ZM10 3.83334C9.55797 3.83334 9.13405 4.00893 8.82149 4.32149C8.50893 4.63405 8.33333 5.05798 8.33333 5.50001C8.33333 5.94203 8.50893 6.36596 8.82149 6.67852C9.13405 6.99108 9.55797 7.16667 10 7.16667C10.442 7.16667 10.866 6.99108 11.1785 6.67852C11.4911 6.36596 11.6667 5.94203 11.6667 5.50001C11.6667 5.05798 11.4911 4.63405 11.1785 4.32149C10.866 4.00893 10.442 3.83334 10 3.83334Z" fill="#313131"/>
</svg>
