<svg width="20" height="21" viewBox="0 0 20 21" fill="none" xmlns="http://www.w3.org/2000/svg">
<g clip-path="url(#clip0_806_1268)">
<path d="M10 9.6665C11.1051 9.6665 12.1649 10.1055 12.9463 10.8869C13.7277 11.6683 14.1667 12.7281 14.1667 13.8332V18.8332H12.5V13.8332C12.5 13.1955 12.2564 12.5819 11.8189 12.118C11.3815 11.654 10.7832 11.3747 10.1467 11.3373L10 11.3332C9.36232 11.3331 8.74874 11.5768 8.28478 12.0142C7.82083 12.4517 7.54158 13.0499 7.50417 13.6865L7.5 13.8332V18.8332H5.83333V13.8332C5.83333 12.7281 6.27232 11.6683 7.05372 10.8869C7.83512 10.1055 8.89493 9.6665 10 9.6665ZM4.58333 12.1665C4.81583 12.1665 5.04167 12.194 5.25833 12.2448C5.11585 12.669 5.03147 13.1105 5.0075 13.5573L5 13.8332V13.9048C4.90421 13.8706 4.80458 13.8482 4.70333 13.8382L4.58333 13.8332C4.2726 13.8332 3.97301 13.9489 3.74298 14.1579C3.51296 14.3668 3.369 14.6539 3.33917 14.9632L3.33333 15.0832V18.8332H1.66667V15.0832C1.66667 14.3096 1.97396 13.5678 2.52094 13.0208C3.06792 12.4738 3.80978 12.1665 4.58333 12.1665ZM15.4167 12.1665C16.1902 12.1665 16.9321 12.4738 17.4791 13.0208C18.026 13.5678 18.3333 14.3096 18.3333 15.0832V18.8332H16.6667V15.0832C16.6667 14.7724 16.5509 14.4728 16.342 14.2428C16.1331 14.0128 15.846 13.8688 15.5367 13.839L15.4167 13.8332C15.2708 13.8332 15.1308 13.8582 15 13.904V13.8332C15 13.2782 14.91 12.7448 14.7425 12.2465C14.9583 12.194 15.1842 12.1665 15.4167 12.1665ZM4.58333 7.1665C5.13587 7.1665 5.66577 7.386 6.05647 7.7767C6.44717 8.1674 6.66667 8.6973 6.66667 9.24984C6.66667 9.80237 6.44717 10.3323 6.05647 10.723C5.66577 11.1137 5.13587 11.3332 4.58333 11.3332C4.0308 11.3332 3.50089 11.1137 3.11019 10.723C2.71949 10.3323 2.5 9.80237 2.5 9.24984C2.5 8.6973 2.71949 8.1674 3.11019 7.7767C3.50089 7.386 4.0308 7.1665 4.58333 7.1665ZM15.4167 7.1665C15.9692 7.1665 16.4991 7.386 16.8898 7.7767C17.2805 8.1674 17.5 8.6973 17.5 9.24984C17.5 9.80237 17.2805 10.3323 16.8898 10.723C16.4991 11.1137 15.9692 11.3332 15.4167 11.3332C14.8641 11.3332 14.3342 11.1137 13.9435 10.723C13.5528 10.3323 13.3333 9.80237 13.3333 9.24984C13.3333 8.6973 13.5528 8.1674 13.9435 7.7767C14.3342 7.386 14.8641 7.1665 15.4167 7.1665ZM4.58333 8.83317C4.47283 8.83317 4.36685 8.87707 4.28871 8.95521C4.21056 9.03335 4.16667 9.13933 4.16667 9.24984C4.16667 9.36034 4.21056 9.46633 4.28871 9.54447C4.36685 9.62261 4.47283 9.6665 4.58333 9.6665C4.69384 9.6665 4.79982 9.62261 4.87796 9.54447C4.9561 9.46633 5 9.36034 5 9.24984C5 9.13933 4.9561 9.03335 4.87796 8.95521C4.79982 8.87707 4.69384 8.83317 4.58333 8.83317ZM15.4167 8.83317C15.3062 8.83317 15.2002 8.87707 15.122 8.95521C15.0439 9.03335 15 9.13933 15 9.24984C15 9.36034 15.0439 9.46633 15.122 9.54447C15.2002 9.62261 15.3062 9.6665 15.4167 9.6665C15.5272 9.6665 15.6332 9.62261 15.7113 9.54447C15.7894 9.46633 15.8333 9.36034 15.8333 9.24984C15.8333 9.13933 15.7894 9.03335 15.7113 8.95521C15.6332 8.87707 15.5272 8.83317 15.4167 8.83317ZM10 2.1665C10.8841 2.1665 11.7319 2.51769 12.357 3.14281C12.9821 3.76794 13.3333 4.61578 13.3333 5.49984C13.3333 6.38389 12.9821 7.23174 12.357 7.85686C11.7319 8.48198 10.8841 8.83317 10 8.83317C9.11594 8.83317 8.2681 8.48198 7.64298 7.85686C7.01786 7.23174 6.66667 6.38389 6.66667 5.49984C6.66667 4.61578 7.01786 3.76794 7.64298 3.14281C8.2681 2.51769 9.11594 2.1665 10 2.1665ZM10 3.83317C9.55797 3.83317 9.13405 4.00877 8.82149 4.32133C8.50893 4.63389 8.33333 5.05781 8.33333 5.49984C8.33333 5.94186 8.50893 6.36579 8.82149 6.67835C9.13405 6.99091 9.55797 7.1665 10 7.1665C10.442 7.1665 10.866 6.99091 11.1785 6.67835C11.4911 6.36579 11.6667 5.94186 11.6667 5.49984C11.6667 5.05781 11.4911 4.63389 11.1785 4.32133C10.866 4.00877 10.442 3.83317 10 3.83317Z" fill="#245FB5"/>
</g>
<defs>
<clipPath id="clip0_806_1268">
<rect width="20" height="20" fill="white" transform="translate(0 0.5)"/>
</clipPath>
</defs>
</svg>
