<svg width="24" height="24" viewBox="0 0 24 24" fill="none" xmlns="http://www.w3.org/2000/svg">
<rect width="24" height="24" rx="3" fill="white"/>
<g clip-path="url(#clip0_546_6303)">
<rect x="4" y="4" width="16" height="16" rx="3" fill="white"/>
<path d="M6.66634 9.33325H17.333V17.9999C17.333 18.1767 17.2628 18.3463 17.1377 18.4713C17.0127 18.5963 16.8432 18.6666 16.6663 18.6666H7.33301C7.1562 18.6666 6.98663 18.5963 6.8616 18.4713C6.73658 18.3463 6.66634 18.1767 6.66634 17.9999V9.33325ZM7.99967 10.6666V17.3333H15.9997V10.6666H7.99967ZM9.99967 11.9999H11.333V15.9999H9.99967V11.9999ZM12.6663 11.9999H13.9997V15.9999H12.6663V11.9999ZM8.66634 7.33325V5.99992C8.66634 5.82311 8.73658 5.65354 8.8616 5.52851C8.98663 5.40349 9.1562 5.33325 9.33301 5.33325H14.6663C14.8432 5.33325 15.0127 5.40349 15.1377 5.52851C15.2628 5.65354 15.333 5.82311 15.333 5.99992V7.33325H18.6663V8.66659H5.33301V7.33325H8.66634ZM9.99967 6.66659V7.33325H13.9997V6.66659H9.99967Z" fill="#313131"/>
</g>
<defs>
<clipPath id="clip0_546_6303">
<rect x="4" y="4" width="16" height="16" rx="3" fill="white"/>
</clipPath>
</defs>
</svg>
