<svg width="32" height="32" viewBox="0 0 32 32" fill="none" xmlns="http://www.w3.org/2000/svg">
<g clip-path="url(#clip0_543_5142)">
<path d="M5.33333 4H26.6667C27.0203 4 27.3594 4.14048 27.6095 4.39052C27.8595 4.64057 28 4.97971 28 5.33333V26.6667C28 27.0203 27.8595 27.3594 27.6095 27.6095C27.3594 27.8595 27.0203 28 26.6667 28H5.33333C4.97971 28 4.64057 27.8595 4.39052 27.6095C4.14048 27.3594 4 27.0203 4 26.6667V5.33333C4 4.97971 4.14048 4.64057 4.39052 4.39052C4.64057 4.14048 4.97971 4 5.33333 4ZM6.66667 6.66667V25.3333H25.3333V6.66667H6.66667ZM14.6667 14.6667V9.33333H17.3333V14.6667H22.6667V17.3333H17.3333V22.6667H14.6667V17.3333H9.33333V14.6667H14.6667Z" fill="#3386FF"/>
</g>
<defs>
<clipPath id="clip0_543_5142">
<rect width="32" height="32" fill="white"/>
</clipPath>
</defs>
</svg>
