<svg width="16" height="16" viewBox="0 0 16 16" fill="none" xmlns="http://www.w3.org/2000/svg">
<path d="M7.99992 14.6667C4.31792 14.6667 1.33325 11.682 1.33325 8.00004C1.33325 4.31804 4.31792 1.33337 7.99992 1.33337C11.6819 1.33337 14.6666 4.31804 14.6666 8.00004C14.6666 11.682 11.6819 14.6667 7.99992 14.6667ZM7.99992 13.3334C9.41441 13.3334 10.771 12.7715 11.7712 11.7713C12.7713 10.7711 13.3333 9.41453 13.3333 8.00004C13.3333 6.58555 12.7713 5.229 11.7712 4.2288C10.771 3.22861 9.41441 2.66671 7.99992 2.66671C6.58543 2.66671 5.22888 3.22861 4.22868 4.2288C3.22849 5.229 2.66659 6.58555 2.66659 8.00004C2.66659 9.41453 3.22849 10.7711 4.22868 11.7713C5.22888 12.7715 6.58543 13.3334 7.99992 13.3334ZM7.33325 4.66671H8.66659V6.00004H7.33325V4.66671ZM7.33325 7.33337H8.66659V11.3334H7.33325V7.33337Z" fill="#3386FF"/>
</svg>
