<svg width="17" height="16" viewBox="0 0 17 16" fill="none" xmlns="http://www.w3.org/2000/svg">
<g clip-path="url(#clip0_806_2786)">
<path d="M8.50004 1.33341C4.81804 1.33341 1.83337 4.31808 1.83337 8.00008C1.83337 11.6821 4.81804 14.6667 8.50004 14.6667C12.182 14.6667 15.1667 11.6821 15.1667 8.00008C15.1667 4.31808 12.182 1.33341 8.50004 1.33341ZM8.50004 2.66675C9.91453 2.66675 11.2711 3.22865 12.2713 4.22884C13.2715 5.22904 13.8334 6.58559 13.8334 8.00008C13.8334 9.41457 13.2715 10.7711 12.2713 11.7713C11.2711 12.7715 9.91453 13.3334 8.50004 13.3334C7.08555 13.3334 5.729 12.7715 4.7288 11.7713C3.72861 10.7711 3.16671 9.41457 3.16671 8.00008C3.16671 6.58559 3.72861 5.22904 4.7288 4.22884C5.729 3.22865 7.08555 2.66675 8.50004 2.66675ZM7.83337 11.3334H9.16671V10.0001H7.83337V11.3334ZM7.83337 8.66675H9.16671V4.66675H7.83337V8.66675Z" fill="#757575"/>
</g>
<defs>
<clipPath id="clip0_806_2786">
<rect width="16" height="16" fill="white" transform="matrix(1 0 0 -1 0.5 16)"/>
</clipPath>
</defs>
</svg>
