<svg width="16" height="17" viewBox="0 0 16 17" fill="none" xmlns="http://www.w3.org/2000/svg">
<path d="M8.74672 11.8487L5.94739 10.322C5.58192 10.7127 5.10738 10.9844 4.58544 11.1019C4.0635 11.2194 3.51829 11.1771 3.02067 10.9807C2.52305 10.7842 2.09603 10.4426 1.7951 10.0003C1.49417 9.55795 1.33325 9.03532 1.33325 8.50033C1.33325 7.96533 1.49417 7.4427 1.7951 7.00036C2.09603 6.55802 2.52305 6.21643 3.02067 6.01997C3.51829 5.82351 4.0635 5.78127 4.58544 5.89874C5.10738 6.0162 5.58192 6.28795 5.94739 6.67866L8.74739 5.15199C8.58843 4.52271 8.66443 3.85705 8.96114 3.27979C9.25786 2.70254 9.75493 2.25331 10.3592 2.01633C10.9634 1.77934 11.6333 1.77086 12.2434 1.99248C12.8534 2.2141 13.3617 2.6506 13.6729 3.22017C13.9842 3.78973 14.077 4.45325 13.934 5.08636C13.791 5.71946 13.422 6.27868 12.8962 6.6592C12.3704 7.03972 11.7239 7.2154 11.0778 7.15332C10.4317 7.09124 9.83046 6.79567 9.38672 6.32199L6.58672 7.84866C6.69419 8.27623 6.69419 8.72375 6.58672 9.15133L9.38606 10.678C9.82979 10.2043 10.431 9.90874 11.0771 9.84666C11.7232 9.78459 12.3697 9.96027 12.8955 10.3408C13.4214 10.7213 13.7903 11.2805 13.9333 11.9136C14.0763 12.5467 13.9835 13.2103 13.6723 13.7798C13.361 14.3494 12.8528 14.7859 12.2427 15.0075C11.6327 15.2291 10.9627 15.2206 10.3585 14.9837C9.75426 14.7467 9.2572 14.2974 8.96048 13.7202C8.66376 13.1429 8.58776 12.4773 8.74672 11.848V11.8487ZM4.00006 9.83333C4.35368 9.83333 4.69282 9.69285 4.94287 9.4428C5.19291 9.19275 5.33339 8.85361 5.33339 8.49999C5.33339 8.14637 5.19291 7.80723 4.94287 7.55718C4.69282 7.30714 4.35368 7.16666 4.00006 7.16666C3.64643 7.16666 3.3073 7.30714 3.05725 7.55718C2.8072 7.80723 2.66672 8.14637 2.66672 8.49999C2.66672 8.85361 2.8072 9.19275 3.05725 9.4428C3.3073 9.69285 3.64643 9.83333 4.00006 9.83333ZM11.3334 5.83333C11.687 5.83333 12.0261 5.69285 12.2762 5.4428C12.5262 5.19275 12.6667 4.85362 12.6667 4.49999C12.6667 4.14637 12.5262 3.80723 12.2762 3.55718C12.0261 3.30714 11.687 3.16666 11.3334 3.16666C10.9798 3.16666 10.6406 3.30714 10.3906 3.55718C10.1405 3.80723 10.0001 4.14637 10.0001 4.49999C10.0001 4.85362 10.1405 5.19275 10.3906 5.4428C10.6406 5.69285 10.9798 5.83333 11.3334 5.83333ZM11.3334 13.8333C11.687 13.8333 12.0261 13.6929 12.2762 13.4428C12.5262 13.1928 12.6667 12.8536 12.6667 12.5C12.6667 12.1464 12.5262 11.8072 12.2762 11.5572C12.0261 11.3071 11.687 11.1667 11.3334 11.1667C10.9798 11.1667 10.6406 11.3071 10.3906 11.5572C10.1405 11.8072 10.0001 12.1464 10.0001 12.5C10.0001 12.8536 10.1405 13.1928 10.3906 13.4428C10.6406 13.6929 10.9798 13.8333 11.3334 13.8333Z" fill="#313131"/>
</svg>
