<svg width="16" height="16" viewBox="0 0 16 16" fill="none" xmlns="http://www.w3.org/2000/svg">
<g clip-path="url(#clip0_1025_2751)">
<path d="M11.7709 9.88542L10.8282 8.94275L11.7709 8.00008C12.0185 7.75245 12.2149 7.45848 12.3489 7.13493C12.4829 6.81139 12.5519 6.46462 12.5519 6.11442C12.5519 5.76422 12.4829 5.41744 12.3489 5.0939C12.2149 4.77036 12.0185 4.47638 11.7709 4.22875C11.5232 3.98112 11.2292 3.78469 10.9057 3.65068C10.5822 3.51666 10.2354 3.44768 9.88519 3.44768C9.53499 3.44768 9.18822 3.51666 8.86467 3.65068C8.54113 3.78469 8.24715 3.98112 7.99952 4.22875L7.05685 5.17142L6.11419 4.22875L7.05685 3.28608C7.80906 2.54603 8.82323 2.13319 9.87844 2.13748C10.9337 2.14178 11.9444 2.56287 12.6906 3.30902C13.4367 4.05518 13.8578 5.06595 13.8621 6.12116C13.8664 7.17638 13.4536 8.19054 12.7135 8.94275L11.7709 9.88542ZM9.88485 11.7714L8.94219 12.7141C8.57187 13.0905 8.13069 13.3898 7.6441 13.5949C7.15751 13.7999 6.63513 13.9066 6.10711 13.9088C5.57908 13.9109 5.05586 13.8085 4.56761 13.6074C4.07937 13.4063 3.63577 13.1106 3.26239 12.7372C2.88902 12.3638 2.59327 11.9202 2.39219 11.432C2.19112 10.9437 2.0887 10.4205 2.09085 9.8925C2.093 9.36447 2.19968 8.8421 2.40472 8.35551C2.60976 7.86892 2.90912 7.42774 3.28552 7.05742L4.22819 6.11475L5.17085 7.05742L4.22819 8.00008C3.98056 8.24771 3.78413 8.54169 3.65011 8.86523C3.5161 9.18878 3.44712 9.53555 3.44712 9.88575C3.44712 10.236 3.5161 10.5827 3.65011 10.9063C3.78413 11.2298 3.98056 11.5238 4.22819 11.7714C4.47582 12.019 4.7698 12.2155 5.09334 12.3495C5.41688 12.4835 5.76365 12.5525 6.11385 12.5525C6.46406 12.5525 6.81083 12.4835 7.13437 12.3495C7.45791 12.2155 7.75189 12.019 7.99952 11.7714L8.94219 10.8287L9.88485 11.7714ZM9.88485 5.17142L10.8282 6.11475L6.11419 10.8281L5.17085 9.88542L9.88485 5.17208V5.17142Z" fill="#313131"/>
</g>
<defs>
<clipPath id="clip0_1025_2751">
<rect width="16" height="16" fill="white"/>
</clipPath>
</defs>
</svg>
