<svg width="16" height="17" viewBox="0 0 16 17" fill="none" xmlns="http://www.w3.org/2000/svg">
<g clip-path="url(#clip0_499_3633)">
<path d="M11.7713 10.3854L10.8287 9.44275L11.7713 8.50008C12.019 8.25245 12.2154 7.95848 12.3494 7.63493C12.4834 7.31139 12.5524 6.96462 12.5524 6.61442C12.5524 6.26422 12.4834 5.91744 12.3494 5.5939C12.2154 5.27036 12.019 4.97638 11.7713 4.72875C11.5237 4.48112 11.2297 4.28469 10.9062 4.15068C10.5826 4.01666 10.2359 3.94768 9.88568 3.94768C9.53547 3.94768 9.1887 4.01666 8.86516 4.15068C8.54162 4.28469 8.24764 4.48112 8.00001 4.72875L7.05734 5.67142L6.11468 4.72875L7.05734 3.78608C7.80955 3.04603 8.82372 2.63319 9.87893 2.63748C10.9341 2.64178 11.9449 3.06287 12.6911 3.80902C13.4372 4.55518 13.8583 5.56595 13.8626 6.62116C13.8669 7.67638 13.4541 8.69054 12.714 9.44275L11.7713 10.3854ZM9.88534 12.2714L8.94268 13.2141C8.57236 13.5905 8.13118 13.8898 7.64459 14.0949C7.15799 14.2999 6.63562 14.4066 6.1076 14.4088C5.57957 14.4109 5.05635 14.3085 4.5681 14.1074C4.07986 13.9063 3.63625 13.6106 3.26288 13.2372C2.88951 12.8638 2.59376 12.4202 2.39268 11.932C2.19161 11.4437 2.08919 10.9205 2.09134 10.3925C2.09349 9.86447 2.20017 9.3421 2.40521 8.85551C2.61025 8.36892 2.90961 7.92774 3.28601 7.55742L4.22868 6.61475L5.17134 7.55742L4.22868 8.50008C3.98105 8.74771 3.78462 9.04169 3.6506 9.36523C3.51658 9.68878 3.44761 10.0355 3.44761 10.3857C3.44761 10.736 3.51658 11.0827 3.6506 11.4063C3.78462 11.7298 3.98105 12.0238 4.22868 12.2714C4.47631 12.519 4.77028 12.7155 5.09383 12.8495C5.41737 12.9835 5.76414 13.0525 6.11434 13.0525C6.46454 13.0525 6.81131 12.9835 7.13486 12.8495C7.4584 12.7155 7.75238 12.519 8.00001 12.2714L8.94268 11.3287L9.88534 12.2714ZM9.88534 5.67142L10.8287 6.61475L6.11468 11.3281L5.17134 10.3854L9.88534 5.67208V5.67142Z" fill="#3386FF"/>
</g>
<defs>
<clipPath id="clip0_499_3633">
<rect width="16" height="16" fill="white" transform="translate(0 0.5)"/>
</clipPath>
</defs>
</svg>
