<svg width="20" height="21" viewBox="0 0 20 21" fill="none" xmlns="http://www.w3.org/2000/svg">
<path d="M17.5 16.3333H19.1667V18H0.833334V16.3333H2.5V3.83333C2.5 3.61232 2.5878 3.40036 2.74408 3.24408C2.90036 3.0878 3.11232 3 3.33333 3H11.6667C11.8877 3 12.0996 3.0878 12.2559 3.24408C12.4122 3.40036 12.5 3.61232 12.5 3.83333V16.3333H15.8333V9.66667H14.1667V8H16.6667C16.8877 8 17.0996 8.0878 17.2559 8.24408C17.4122 8.40036 17.5 8.61232 17.5 8.83333V16.3333ZM4.16667 4.66667V16.3333H10.8333V4.66667H4.16667ZM5.83333 9.66667H9.16667V11.3333H5.83333V9.66667ZM5.83333 6.33333H9.16667V8H5.83333V6.33333Z" fill="#245FB5"/>
</svg>
