<svg width="20" height="21" viewBox="0 0 20 21" fill="none" xmlns="http://www.w3.org/2000/svg">
<g clip-path="url(#clip0_200_1570)">
<path d="M10 20.2734L4.69667 14.97C3.64779 13.9211 2.93349 12.5847 2.64411 11.1299C2.35473 9.67504 2.50326 8.16704 3.07092 6.7966C3.63858 5.42616 4.59987 4.25483 5.83324 3.43072C7.0666 2.60661 8.51665 2.16675 10 2.16675C11.4834 2.16675 12.9334 2.60661 14.1668 3.43072C15.4001 4.25483 16.3614 5.42616 16.9291 6.7966C17.4968 8.16704 17.6453 9.67504 17.3559 11.1299C17.0665 12.5847 16.3522 13.9211 15.3033 14.97L10 20.2734ZM14.125 13.7917C14.9408 12.9759 15.4963 11.9365 15.7213 10.8049C15.9463 9.67337 15.8308 8.50051 15.3892 7.43465C14.9477 6.36878 14.2 5.45777 13.2408 4.81682C12.2815 4.17587 11.1537 3.83377 10 3.83377C8.8463 3.83377 7.71851 4.17587 6.75924 4.81682C5.79997 5.45777 5.05229 6.36878 4.61076 7.43465C4.16923 8.50051 4.05368 9.67337 4.27871 10.8049C4.50374 11.9365 5.05926 12.9759 5.875 13.7917L10 17.9167L14.125 13.7917ZM10 11.3334C9.55798 11.3334 9.13405 11.1578 8.82149 10.8452C8.50893 10.5326 8.33334 10.1087 8.33334 9.66668C8.33334 9.22466 8.50893 8.80073 8.82149 8.48817C9.13405 8.17561 9.55798 8.00002 10 8.00002C10.442 8.00002 10.866 8.17561 11.1785 8.48817C11.4911 8.80073 11.6667 9.22466 11.6667 9.66668C11.6667 10.1087 11.4911 10.5326 11.1785 10.8452C10.866 11.1578 10.442 11.3334 10 11.3334Z" fill="#757575"/>
</g>
<defs>
<clipPath id="clip0_200_1570">
<rect width="20" height="20" fill="white" transform="translate(0 0.5)"/>
</clipPath>
</defs>
</svg>
