<svg width="20" height="21" viewBox="0 0 20 21" fill="none" xmlns="http://www.w3.org/2000/svg">
<g clip-path="url(#clip0_853_194)">
<path d="M15.8333 8.83317H16.6667C16.8877 8.83317 17.0996 8.92097 17.2559 9.07725C17.4122 9.23353 17.5 9.44549 17.5 9.6665V17.9998C17.5 18.2209 17.4122 18.4328 17.2559 18.5891C17.0996 18.7454 16.8877 18.8332 16.6667 18.8332H3.33333C3.11232 18.8332 2.90036 18.7454 2.74408 18.5891C2.5878 18.4328 2.5 18.2209 2.5 17.9998V9.6665C2.5 9.44549 2.5878 9.23353 2.74408 9.07725C2.90036 8.92097 3.11232 8.83317 3.33333 8.83317H4.16667V7.99984C4.16667 7.23379 4.31755 6.47525 4.6107 5.76752C4.90386 5.05978 5.33354 4.41672 5.87521 3.87505C6.41689 3.33337 7.05995 2.90369 7.76768 2.61054C8.47541 2.31739 9.23396 2.1665 10 2.1665C10.766 2.1665 11.5246 2.31739 12.2323 2.61054C12.9401 2.90369 13.5831 3.33337 14.1248 3.87505C14.6665 4.41672 15.0961 5.05978 15.3893 5.76752C15.6825 6.47525 15.8333 7.23379 15.8333 7.99984V8.83317ZM4.16667 10.4998V17.1665H15.8333V10.4998H4.16667ZM9.16667 12.1665H10.8333V15.4998H9.16667V12.1665ZM14.1667 8.83317V7.99984C14.1667 6.89477 13.7277 5.83496 12.9463 5.05356C12.1649 4.27216 11.1051 3.83317 10 3.83317C8.89493 3.83317 7.83512 4.27216 7.05372 5.05356C6.27232 5.83496 5.83333 6.89477 5.83333 7.99984V8.83317H14.1667Z" fill="#313131"/>
</g>
<defs>
<clipPath id="clip0_853_194">
<rect width="20" height="20" fill="white" transform="translate(0 0.5)"/>
</clipPath>
</defs>
</svg>
