<svg width="20" height="21" viewBox="0 0 20 21" fill="none" xmlns="http://www.w3.org/2000/svg">
<g clip-path="url(#clip0_552_11569)">
<path d="M2.50008 3H17.5001C17.7211 3 17.9331 3.0878 18.0893 3.24408C18.2456 3.40036 18.3334 3.61232 18.3334 3.83333V17.1667C18.3334 17.3877 18.2456 17.5996 18.0893 17.7559C17.9331 17.9122 17.7211 18 17.5001 18H2.50008C2.27907 18 2.06711 17.9122 1.91083 17.7559C1.75455 17.5996 1.66675 17.3877 1.66675 17.1667V3.83333C1.66675 3.61232 1.75455 3.40036 1.91083 3.24408C2.06711 3.0878 2.27907 3 2.50008 3ZM16.6667 6.53167L10.0601 12.4483L3.33341 6.51333V16.3333H16.6667V6.53167ZM3.75925 4.66667L10.0509 10.2183L16.2517 4.66667H3.75925Z" fill="#313131"/>
</g>
<defs>
<clipPath id="clip0_552_11569">
<rect width="20" height="20" fill="white" transform="translate(0 0.5)"/>
</clipPath>
</defs>
</svg>
