<svg width="16" height="16" viewBox="0 0 16 16" fill="none" xmlns="http://www.w3.org/2000/svg">
<g clip-path="url(#clip0_629_2829)">
<path d="M5.33325 5.33334V10.6667H10.6666V5.33334H5.33325ZM3.99992 4.00001H11.9999V12H3.99992V4.00001ZM3.99992 1.33334H5.33325V3.33334H3.99992V1.33334ZM3.99992 12.6667H5.33325V14.6667H3.99992V12.6667ZM1.33325 4.00001H3.33325V5.33334H1.33325V4.00001ZM1.33325 10.6667H3.33325V12H1.33325V10.6667ZM12.6666 4.00001H14.6666V5.33334H12.6666V4.00001ZM12.6666 10.6667H14.6666V12H12.6666V10.6667ZM10.6666 1.33334H11.9999V3.33334H10.6666V1.33334ZM10.6666 12.6667H11.9999V14.6667H10.6666V12.6667Z" fill="#313131"/>
</g>
<defs>
<clipPath id="clip0_629_2829">
<rect width="16" height="16" fill="white"/>
</clipPath>
</defs>
</svg>
