<svg width="16" height="16" viewBox="0 0 16 16" fill="none" xmlns="http://www.w3.org/2000/svg">
<path d="M8.00004 1.33337C11.682 1.33337 14.6667 4.31804 14.6667 8.00004C14.6667 11.682 11.682 14.6667 8.00004 14.6667C4.31804 14.6667 1.33337 11.682 1.33337 8.00004H2.66671C2.66671 10.9454 5.05471 13.3334 8.00004 13.3334C10.9454 13.3334 13.3334 10.9454 13.3334 8.00004C13.3334 5.05471 10.9454 2.66671 8.00004 2.66671C6.16671 2.66671 4.54937 3.59137 3.59004 5.00004H5.33337V6.33337H1.33337V2.33337H2.66671V4.00004C3.88271 2.38004 5.81937 1.33337 8.00004 1.33337ZM8.66671 4.66671V7.72337L10.8287 9.88537L9.88537 10.8287L7.33337 8.27537V4.66671H8.66671Z" fill="#E3D025"/>
</svg>
