<svg width="35" height="35" viewBox="0 0 35 35" fill="none" xmlns="http://www.w3.org/2000/svg">
<rect x="2" y="2" width="30.6667" height="30.6667" rx="15.3333" fill="#3386FF"/>
<rect x="2" y="2" width="30.6667" height="30.6667" rx="15.3333" stroke="white" stroke-width="4"/>
<g clip-path="url(#clip0_552_10985)">
<path d="M15.0358 23.1669H24.8333V24.8336H9.83334V21.2977L18.0833 13.0477L21.6183 16.5844L15.035 23.1669H15.0358ZM19.2608 11.8702L21.0292 10.1019C21.1854 9.94567 21.3974 9.85791 21.6183 9.85791C21.8393 9.85791 22.0512 9.94567 22.2075 10.1019L24.565 12.4594C24.7212 12.6157 24.809 12.8276 24.809 13.0486C24.809 13.2695 24.7212 13.4815 24.565 13.6377L22.7967 15.4052L19.2617 11.8702H19.2608Z" fill="white"/>
</g>
<defs>
<clipPath id="clip0_552_10985">
<rect width="20" height="20" fill="white" transform="translate(7.33334 7.3335)"/>
</clipPath>
</defs>
</svg>
