<svg width="20" height="21" viewBox="0 0 20 21" fill="none" xmlns="http://www.w3.org/2000/svg">
<g clip-path="url(#clip0_200_1584)">
<path d="M5.00008 16.3333H2.50008C2.27907 16.3333 2.06711 16.2455 1.91083 16.0892C1.75455 15.9329 1.66675 15.721 1.66675 15.5V7.16663C1.66675 6.94561 1.75455 6.73365 1.91083 6.57737C2.06711 6.42109 2.27907 6.33329 2.50008 6.33329H5.00008V2.99996C5.00008 2.77895 5.08788 2.56698 5.24416 2.4107C5.40044 2.25442 5.6124 2.16663 5.83342 2.16663H14.1667C14.3878 2.16663 14.5997 2.25442 14.756 2.4107C14.9123 2.56698 15.0001 2.77895 15.0001 2.99996V6.33329H17.5001C17.7211 6.33329 17.9331 6.42109 18.0893 6.57737C18.2456 6.73365 18.3334 6.94561 18.3334 7.16663V15.5C18.3334 15.721 18.2456 15.9329 18.0893 16.0892C17.9331 16.2455 17.7211 16.3333 17.5001 16.3333H15.0001V18C15.0001 18.221 14.9123 18.4329 14.756 18.5892C14.5997 18.7455 14.3878 18.8333 14.1667 18.8333H5.83342C5.6124 18.8333 5.40044 18.7455 5.24416 18.5892C5.08788 18.4329 5.00008 18.221 5.00008 18V16.3333ZM5.00008 14.6666V13.8333C5.00008 13.6123 5.08788 13.4003 5.24416 13.244C5.40044 13.0878 5.6124 13 5.83342 13H14.1667C14.3878 13 14.5997 13.0878 14.756 13.244C14.9123 13.4003 15.0001 13.6123 15.0001 13.8333V14.6666H16.6667V7.99996H3.33341V14.6666H5.00008ZM6.66675 3.83329V6.33329H13.3334V3.83329H6.66675ZM6.66675 14.6666V17.1666H13.3334V14.6666H6.66675ZM4.16675 8.83329H6.66675V10.5H4.16675V8.83329Z" fill="#757575"/>
</g>
<defs>
<clipPath id="clip0_200_1584">
<rect width="20" height="20" fill="white" transform="translate(0 0.5)"/>
</clipPath>
</defs>
</svg>
