<svg width="14" height="14" viewBox="0 0 14 14" fill="none" xmlns="http://www.w3.org/2000/svg">
<path d="M2.64192 1.95532C3.85162 0.907093 5.39924 0.331086 6.99992 0.333319C10.6819 0.333319 13.6666 3.31799 13.6666 6.99999C13.6666 8.42399 13.2199 9.74399 12.4599 10.8267L10.3333 6.99999H12.3333C12.3333 5.9544 12.0261 4.93186 11.4497 4.05949C10.8733 3.18712 10.0532 2.50343 9.09137 2.0934C8.12954 1.68338 7.0684 1.56512 6.03989 1.75333C5.01138 1.94154 4.06089 2.42792 3.30659 3.15199L2.64192 1.95532ZM11.3579 12.0447C10.1482 13.0929 8.60059 13.6689 6.99992 13.6667C3.31792 13.6667 0.333252 10.682 0.333252 6.99999C0.333252 5.57599 0.779919 4.25599 1.53992 3.17332L3.66659 6.99999H1.66659C1.6665 8.04557 1.97375 9.06812 2.55014 9.94048C3.12653 10.8128 3.94663 11.4965 4.90847 11.9066C5.8703 12.3166 6.93144 12.4349 7.95995 12.2466C8.98845 12.0584 9.93895 11.5721 10.6933 10.848L11.3579 12.0447Z" fill="#3386FF"/>
</svg>
