<svg width="20" height="21" viewBox="0 0 20 21" fill="none" xmlns="http://www.w3.org/2000/svg">
<g clip-path="url(#clip0_683_879)">
<path d="M1.84417 12.2167C1.60451 11.0848 1.60451 9.91524 1.84417 8.78334C2.76917 8.89167 3.5775 8.58584 3.84083 7.94917C4.105 7.31167 3.75083 6.52417 3.01917 5.94667C3.65003 4.97694 4.47694 4.15004 5.44667 3.51917C6.02333 4.25001 6.81167 4.60501 7.44917 4.34084C8.08667 4.07667 8.3925 3.26917 8.28333 2.34417C9.41523 2.10451 10.5848 2.10451 11.7167 2.34417C11.6083 3.26917 11.9142 4.07751 12.5508 4.34084C13.1883 4.60501 13.9758 4.25084 14.5533 3.51917C15.5231 4.15004 16.35 4.97694 16.9808 5.94667C16.25 6.52334 15.895 7.31167 16.1592 7.94917C16.4233 8.58667 17.2308 8.89251 18.1558 8.78334C18.3955 9.91524 18.3955 11.0848 18.1558 12.2167C17.2308 12.1083 16.4225 12.4142 16.1592 13.0508C15.895 13.6883 16.2492 14.4758 16.9808 15.0533C16.35 16.0231 15.5231 16.85 14.5533 17.4808C13.9767 16.75 13.1883 16.395 12.5508 16.6592C11.9133 16.9233 11.6075 17.7308 11.7167 18.6558C10.5848 18.8955 9.41523 18.8955 8.28333 18.6558C8.39167 17.7308 8.08583 16.9225 7.44917 16.6592C6.81167 16.395 6.02417 16.7492 5.44667 17.4808C4.47694 16.85 3.65003 16.0231 3.01917 15.0533C3.75 14.4767 4.105 13.6883 3.84083 13.0508C3.57667 12.4133 2.76917 12.1075 1.84417 12.2167ZM3.33333 10.675C4.25 10.9292 5.00583 11.51 5.38083 12.4133C5.755 13.3175 5.63083 14.2633 5.1625 15.09C5.2425 15.175 5.325 15.2575 5.41 15.3375C6.2375 14.8692 7.1825 14.7458 8.08667 15.1192C8.99 15.4942 9.57083 16.25 9.825 17.1667C9.94167 17.17 10.0583 17.17 10.175 17.1667C10.4292 16.25 11.01 15.4942 11.9133 15.1192C12.8175 14.745 13.7633 14.8692 14.59 15.3375C14.675 15.2575 14.7575 15.175 14.8375 15.09C14.3692 14.2625 14.2458 13.3175 14.6192 12.4133C14.9942 11.51 15.75 10.9292 16.6667 10.675C16.67 10.5583 16.67 10.4417 16.6667 10.325C15.75 10.0708 14.9942 9.49001 14.6192 8.58667C14.245 7.68251 14.3692 6.73667 14.8375 5.91001C14.7572 5.82534 14.6747 5.74281 14.59 5.66251C13.7625 6.13084 12.8175 6.25417 11.9133 5.88084C11.01 5.50584 10.4292 4.75001 10.175 3.83334C10.0584 3.83025 9.94165 3.83025 9.825 3.83334C9.57083 4.75001 8.99 5.50584 8.08667 5.88084C7.1825 6.25501 6.23667 6.13084 5.41 5.66251C5.325 5.74251 5.2425 5.82501 5.1625 5.91001C5.63083 6.73751 5.75417 7.68251 5.38083 8.58667C5.00583 9.49001 4.25 10.0708 3.33333 10.325C3.33 10.4417 3.33 10.5583 3.33333 10.675ZM10 13C9.33696 13 8.70107 12.7366 8.23223 12.2678C7.76339 11.7989 7.5 11.163 7.5 10.5C7.5 9.83696 7.76339 9.20108 8.23223 8.73224C8.70107 8.2634 9.33696 8.00001 10 8.00001C10.663 8.00001 11.2989 8.2634 11.7678 8.73224C12.2366 9.20108 12.5 9.83696 12.5 10.5C12.5 11.163 12.2366 11.7989 11.7678 12.2678C11.2989 12.7366 10.663 13 10 13ZM10 11.3333C10.221 11.3333 10.433 11.2455 10.5893 11.0893C10.7455 10.933 10.8333 10.721 10.8333 10.5C10.8333 10.279 10.7455 10.067 10.5893 9.91075C10.433 9.75447 10.221 9.66667 10 9.66667C9.77899 9.66667 9.56703 9.75447 9.41074 9.91075C9.25446 10.067 9.16667 10.279 9.16667 10.5C9.16667 10.721 9.25446 10.933 9.41074 11.0893C9.56703 11.2455 9.77899 11.3333 10 11.3333Z" fill="#313131"/>
</g>
<defs>
<clipPath id="clip0_683_879">
<rect width="20" height="20" fill="white" transform="translate(0 0.5)"/>
</clipPath>
</defs>
</svg>
