<svg width="20" height="21" viewBox="0 0 20 21" fill="none" xmlns="http://www.w3.org/2000/svg">
<g clip-path="url(#clip0_806_162)">
<path d="M1.84417 12.2168C1.60451 11.0849 1.60451 9.91536 1.84417 8.78346C2.76917 8.89179 3.5775 8.58596 3.84083 7.94929C4.105 7.31179 3.75083 6.52429 3.01917 5.94679C3.65003 4.97707 4.47694 4.15016 5.44667 3.51929C6.02333 4.25013 6.81167 4.60513 7.44917 4.34096C8.08667 4.07679 8.3925 3.26929 8.28333 2.34429C9.41523 2.10464 10.5848 2.10464 11.7167 2.34429C11.6083 3.26929 11.9142 4.07763 12.5508 4.34096C13.1883 4.60513 13.9758 4.25096 14.5533 3.51929C15.5231 4.15016 16.35 4.97707 16.9808 5.94679C16.25 6.52346 15.895 7.31179 16.1592 7.94929C16.4233 8.58679 17.2308 8.89263 18.1558 8.78346C18.3955 9.91536 18.3955 11.0849 18.1558 12.2168C17.2308 12.1085 16.4225 12.4143 16.1592 13.051C15.895 13.6885 16.2492 14.476 16.9808 15.0535C16.35 16.0232 15.5231 16.8501 14.5533 17.481C13.9767 16.7501 13.1883 16.3951 12.5508 16.6593C11.9133 16.9235 11.6075 17.731 11.7167 18.656C10.5848 18.8956 9.41523 18.8956 8.28333 18.656C8.39167 17.731 8.08583 16.9226 7.44917 16.6593C6.81167 16.3951 6.02417 16.7493 5.44667 17.481C4.47694 16.8501 3.65003 16.0232 3.01917 15.0535C3.75 14.4768 4.105 13.6885 3.84083 13.051C3.57667 12.4135 2.76917 12.1076 1.84417 12.2168ZM3.33333 10.6751C4.25 10.9293 5.00583 11.5101 5.38083 12.4135C5.755 13.3176 5.63083 14.2635 5.1625 15.0901C5.2425 15.1751 5.325 15.2576 5.41 15.3376C6.2375 14.8693 7.1825 14.746 8.08667 15.1193C8.99 15.4943 9.57083 16.2501 9.825 17.1668C9.94167 17.1701 10.0583 17.1701 10.175 17.1668C10.4292 16.2501 11.01 15.4943 11.9133 15.1193C12.8175 14.7451 13.7633 14.8693 14.59 15.3376C14.675 15.2576 14.7575 15.1751 14.8375 15.0901C14.3692 14.2626 14.2458 13.3176 14.6192 12.4135C14.9942 11.5101 15.75 10.9293 16.6667 10.6751C16.67 10.5585 16.67 10.4418 16.6667 10.3251C15.75 10.071 14.9942 9.49013 14.6192 8.58679C14.245 7.68263 14.3692 6.73679 14.8375 5.91013C14.7572 5.82546 14.6747 5.74293 14.59 5.66263C13.7625 6.13096 12.8175 6.25429 11.9133 5.88096C11.01 5.50596 10.4292 4.75013 10.175 3.83346C10.0584 3.83037 9.94165 3.83037 9.825 3.83346C9.57083 4.75013 8.99 5.50596 8.08667 5.88096C7.1825 6.25513 6.23667 6.13096 5.41 5.66263C5.325 5.74263 5.2425 5.82513 5.1625 5.91013C5.63083 6.73763 5.75417 7.68263 5.38083 8.58679C5.00583 9.49013 4.25 10.071 3.33333 10.3251C3.33 10.4418 3.33 10.5585 3.33333 10.6751ZM10 13.0001C9.33696 13.0001 8.70107 12.7367 8.23223 12.2679C7.76339 11.7991 7.5 11.1632 7.5 10.5001C7.5 9.83709 7.76339 9.2012 8.23223 8.73236C8.70107 8.26352 9.33696 8.00013 10 8.00013C10.663 8.00013 11.2989 8.26352 11.7678 8.73236C12.2366 9.2012 12.5 9.83709 12.5 10.5001C12.5 11.1632 12.2366 11.7991 11.7678 12.2679C11.2989 12.7367 10.663 13.0001 10 13.0001ZM10 11.3335C10.221 11.3335 10.433 11.2457 10.5893 11.0894C10.7455 10.9331 10.8333 10.7211 10.8333 10.5001C10.8333 10.2791 10.7455 10.0672 10.5893 9.91087C10.433 9.75459 10.221 9.66679 10 9.66679C9.77899 9.66679 9.56703 9.75459 9.41074 9.91087C9.25446 10.0672 9.16667 10.2791 9.16667 10.5001C9.16667 10.7211 9.25446 10.9331 9.41074 11.0894C9.56703 11.2457 9.77899 11.3335 10 11.3335Z" fill="#245FB5"/>
</g>
<defs>
<clipPath id="clip0_806_162">
<rect width="20" height="20" fill="white" transform="translate(0 0.5)"/>
</clipPath>
</defs>
</svg>
