<svg width="20" height="21" viewBox="0 0 20 21" fill="none" xmlns="http://www.w3.org/2000/svg">
<path d="M9.99996 18.8333C5.39746 18.8333 1.66663 15.1025 1.66663 10.5C1.66663 5.89746 5.39746 2.16663 9.99996 2.16663C14.6025 2.16663 18.3333 5.89746 18.3333 10.5C18.3333 15.1025 14.6025 18.8333 9.99996 18.8333ZM9.99996 17.1666C11.7681 17.1666 13.4638 16.4642 14.714 15.214C15.9642 13.9638 16.6666 12.2681 16.6666 10.5C16.6666 8.73185 15.9642 7.03616 14.714 5.78591C13.4638 4.53567 11.7681 3.83329 9.99996 3.83329C8.23185 3.83329 6.53616 4.53567 5.28591 5.78591C4.03567 7.03616 3.33329 8.73185 3.33329 10.5C3.33329 12.2681 4.03567 13.9638 5.28591 15.214C6.53616 16.4642 8.23185 17.1666 9.99996 17.1666ZM10.8333 10.5H14.1666V12.1666H9.16663V6.33329H10.8333V10.5Z" fill="#757575"/>
</svg>
