<svg width="20" height="21" viewBox="0 0 20 21" fill="none" xmlns="http://www.w3.org/2000/svg">
<g clip-path="url(#clip0_200_1578)">
<path d="M9.99996 3C14.4933 3 18.2316 6.23333 19.0158 10.5C18.2325 14.7667 14.4933 18 9.99996 18C5.50663 18 1.7683 14.7667 0.984131 10.5C1.76746 6.23333 5.50663 3 9.99996 3ZM9.99996 16.3333C11.6995 16.333 13.3486 15.7557 14.6773 14.696C16.0061 13.6363 16.9357 12.1569 17.3141 10.5C16.9343 8.84442 16.0041 7.36667 14.6755 6.30835C13.3469 5.25004 11.6985 4.67377 9.99996 4.67377C8.30138 4.67377 6.65304 5.25004 5.32444 6.30835C3.99585 7.36667 3.0656 8.84442 2.6858 10.5C3.06421 12.1569 3.99386 13.6363 5.32258 14.696C6.65131 15.7557 8.30041 16.333 9.99996 16.3333ZM9.99996 14.25C9.0054 14.25 8.05158 13.8549 7.34831 13.1516C6.64505 12.4484 6.24996 11.4946 6.24996 10.5C6.24996 9.50544 6.64505 8.55161 7.34831 7.84835C8.05158 7.14509 9.0054 6.75 9.99996 6.75C10.9945 6.75 11.9484 7.14509 12.6516 7.84835C13.3549 8.55161 13.75 9.50544 13.75 10.5C13.75 11.4946 13.3549 12.4484 12.6516 13.1516C11.9484 13.8549 10.9945 14.25 9.99996 14.25ZM9.99996 12.5833C10.5525 12.5833 11.0824 12.3638 11.4731 11.9731C11.8638 11.5824 12.0833 11.0525 12.0833 10.5C12.0833 9.94747 11.8638 9.41756 11.4731 9.02686C11.0824 8.63616 10.5525 8.41667 9.99996 8.41667C9.44743 8.41667 8.91753 8.63616 8.52682 9.02686C8.13612 9.41756 7.91663 9.94747 7.91663 10.5C7.91663 11.0525 8.13612 11.5824 8.52682 11.9731C8.91753 12.3638 9.44743 12.5833 9.99996 12.5833Z" fill="#757575"/>
</g>
<defs>
<clipPath id="clip0_200_1578">
<rect width="20" height="20" fill="white" transform="translate(0 0.5)"/>
</clipPath>
</defs>
</svg>
